# xmcd
#
# Track frame offsets: 
#        150
#        21199
#        42023
#        61223
#        82977
#        99619
#        116119
#        136921
#        156534
#
# Disc length: 2333 seconds
#
# Revision: 3
# Processed by: cddbd v1.5.2PL0 Copyright (c) Steve Scherf et al.
# Submitted via: ExactAudioCopyFreeDBPlugin 1.0
#
DISCID=71091b09
DTITLE=<Various Artists> - Rare trax vol. 103
DYEAR=2017
DGENRE=Pop
TTITLE0=Reverend Ch. Dabeler - Lust for life
TTITLE1=Der Mann feat. Old Man Happy - The passenger
TTITLE2=Tim Völker and Hendrik Otremba - Born slippy, Nuxx
TTITLE3=JaKönigJa - Temptation
TTITLE4=Oska Wald - Mile end
TTITLE5=Ana Ana - Perfect day
TTITLE6=Levin Goes Lightly - Nightclubbing
TTITLE7=Der Ringer - Born slippy, Nuxx
TTITLE8=Pascal Finkenauer - Perfect day
EXTD=
EXTT0=
EXTT1=
EXTT2=
EXTT3=
EXTT4=
EXTT5=
EXTT6=
EXTT7=
EXTT8=
PLAYORDER=
